<svg width="125" height="11" viewBox="0 0 125 11" fill="none" xmlns="http://www.w3.org/2000/svg">
<path opacity="0.25" d="M0.0790001 10V0.314999H1.145L6.709 8.141L6.228 8.193V0.314999H7.515V10H6.449L0.911 2.122L1.353 2.07V10H0.0790001ZM12.7577 10.156C12.0817 10.156 11.4793 9.99567 10.9507 9.675C10.422 9.35433 10.006 8.91667 9.70266 8.362C9.39932 7.79867 9.24766 7.17033 9.24766 6.477C9.24766 5.775 9.39499 5.151 9.68966 4.605C9.99299 4.059 10.4003 3.63 10.9117 3.318C11.4317 2.99733 12.0123 2.837 12.6537 2.837C13.1737 2.837 13.633 2.93233 14.0317 3.123C14.439 3.305 14.7813 3.55633 15.0587 3.877C15.3447 4.189 15.5613 4.54867 15.7087 4.956C15.8647 5.35467 15.9427 5.77067 15.9427 6.204C15.9427 6.29933 15.934 6.40767 15.9167 6.529C15.908 6.64167 15.895 6.75 15.8777 6.854H10.1317V5.814H15.1757L14.6037 6.282C14.6817 5.83133 14.6383 5.42833 14.4737 5.073C14.309 4.71767 14.0663 4.436 13.7457 4.228C13.425 4.02 13.061 3.916 12.6537 3.916C12.2463 3.916 11.8737 4.02 11.5357 4.228C11.1977 4.436 10.9333 4.735 10.7427 5.125C10.5607 5.50633 10.487 5.96133 10.5217 6.49C10.487 7.00133 10.565 7.452 10.7557 7.842C10.955 8.22333 11.2323 8.52233 11.5877 8.739C11.9517 8.947 12.346 9.051 12.7707 9.051C13.2387 9.051 13.633 8.94267 13.9537 8.726C14.2743 8.50933 14.5343 8.232 14.7337 7.894L15.7477 8.414C15.609 8.73467 15.3923 9.02933 15.0977 9.298C14.8117 9.558 14.4693 9.766 14.0707 9.922C13.6807 10.078 13.243 10.156 12.7577 10.156ZM19.131 10L16.726 2.993H18.065L19.976 8.856L19.508 8.843L21.38 2.993H22.524L24.396 8.843L23.928 8.856L25.852 2.993H27.178L24.773 10H23.616L21.77 4.15H22.134L20.288 10H19.131ZM33.0153 10.156C32.3133 10.156 31.7023 9.98267 31.1823 9.636C30.6623 9.28933 30.294 8.82133 30.0773 8.232L31.0393 7.764C31.2386 8.18 31.5116 8.50933 31.8583 8.752C32.205 8.99467 32.5906 9.116 33.0153 9.116C33.3966 9.116 33.713 9.025 33.9643 8.843C34.2156 8.661 34.3413 8.42267 34.3413 8.128C34.3413 7.92 34.2806 7.75533 34.1593 7.634C34.0466 7.504 33.908 7.40433 33.7433 7.335C33.5786 7.257 33.427 7.20067 33.2883 7.166L32.2353 6.867C31.6026 6.685 31.139 6.425 30.8443 6.087C30.5583 5.749 30.4153 5.35467 30.4153 4.904C30.4153 4.488 30.5193 4.12833 30.7273 3.825C30.944 3.513 31.2343 3.27033 31.5983 3.097C31.971 2.92367 32.387 2.837 32.8463 2.837C33.4616 2.837 34.012 2.993 34.4973 3.305C34.9913 3.617 35.3423 4.05467 35.5503 4.618L34.5623 5.073C34.4063 4.709 34.1723 4.423 33.8603 4.215C33.5483 3.99833 33.1973 3.89 32.8073 3.89C32.452 3.89 32.1703 3.981 31.9623 4.163C31.7543 4.33633 31.6503 4.55733 31.6503 4.826C31.6503 5.02533 31.7023 5.19 31.8063 5.32C31.9103 5.44133 32.036 5.53667 32.1833 5.606C32.3306 5.66667 32.4736 5.71867 32.6123 5.762L33.7563 6.1C34.3283 6.26467 34.7703 6.52033 35.0823 6.867C35.403 7.21367 35.5633 7.62967 35.5633 8.115C35.5633 8.505 35.455 8.856 35.2383 9.168C35.0216 9.48 34.7226 9.72267 34.3413 9.896C33.96 10.0693 33.518 10.156 33.0153 10.156ZM40.37 10.156C39.694 10.156 39.0916 9.99567 38.563 9.675C38.0343 9.35433 37.6183 8.91667 37.315 8.362C37.0116 7.79867 36.86 7.17033 36.86 6.477C36.86 5.775 37.0073 5.151 37.302 4.605C37.6053 4.059 38.0126 3.63 38.524 3.318C39.044 2.99733 39.6246 2.837 40.266 2.837C40.786 2.837 41.2453 2.93233 41.644 3.123C42.0513 3.305 42.3936 3.55633 42.671 3.877C42.957 4.189 43.1736 4.54867 43.321 4.956C43.477 5.35467 43.555 5.77067 43.555 6.204C43.555 6.29933 43.5463 6.40767 43.529 6.529C43.5203 6.64167 43.5073 6.75 43.49 6.854H37.744V5.814H42.788L42.216 6.282C42.294 5.83133 42.2506 5.42833 42.086 5.073C41.9213 4.71767 41.6786 4.436 41.358 4.228C41.0373 4.02 40.6733 3.916 40.266 3.916C39.8586 3.916 39.486 4.02 39.148 4.228C38.81 4.436 38.5456 4.735 38.355 5.125C38.173 5.50633 38.0993 5.96133 38.134 6.49C38.0993 7.00133 38.1773 7.452 38.368 7.842C38.5673 8.22333 38.8446 8.52233 39.2 8.739C39.564 8.947 39.9583 9.051 40.383 9.051C40.851 9.051 41.2453 8.94267 41.566 8.726C41.8866 8.50933 42.1466 8.232 42.346 7.894L43.36 8.414C43.2213 8.73467 43.0046 9.02933 42.71 9.298C42.424 9.558 42.0816 9.766 41.683 9.922C41.293 10.078 40.8553 10.156 40.37 10.156ZM47.6403 10.156C46.9383 10.156 46.3273 9.98267 45.8073 9.636C45.2873 9.28933 44.919 8.82133 44.7023 8.232L45.6643 7.764C45.8636 8.18 46.1366 8.50933 46.4833 8.752C46.83 8.99467 47.2156 9.116 47.6403 9.116C48.0216 9.116 48.338 9.025 48.5893 8.843C48.8406 8.661 48.9663 8.42267 48.9663 8.128C48.9663 7.92 48.9056 7.75533 48.7843 7.634C48.6716 7.504 48.533 7.40433 48.3683 7.335C48.2036 7.257 48.052 7.20067 47.9133 7.166L46.8603 6.867C46.2276 6.685 45.764 6.425 45.4693 6.087C45.1833 5.749 45.0403 5.35467 45.0403 4.904C45.0403 4.488 45.1443 4.12833 45.3523 3.825C45.569 3.513 45.8593 3.27033 46.2233 3.097C46.596 2.92367 47.012 2.837 47.4713 2.837C48.0866 2.837 48.637 2.993 49.1223 3.305C49.6163 3.617 49.9673 4.05467 50.1753 4.618L49.1873 5.073C49.0313 4.709 48.7973 4.423 48.4853 4.215C48.1733 3.99833 47.8223 3.89 47.4323 3.89C47.077 3.89 46.7953 3.981 46.5873 4.163C46.3793 4.33633 46.2753 4.55733 46.2753 4.826C46.2753 5.02533 46.3273 5.19 46.4313 5.32C46.5353 5.44133 46.661 5.53667 46.8083 5.606C46.9556 5.66667 47.0986 5.71867 47.2373 5.762L48.3813 6.1C48.9533 6.26467 49.3953 6.52033 49.7073 6.867C50.028 7.21367 50.1883 7.62967 50.1883 8.115C50.1883 8.505 50.08 8.856 49.8633 9.168C49.6466 9.48 49.3476 9.72267 48.9663 9.896C48.585 10.0693 48.143 10.156 47.6403 10.156ZM54.28 10.156C53.578 10.156 52.967 9.98267 52.447 9.636C51.927 9.28933 51.5586 8.82133 51.342 8.232L52.304 7.764C52.5033 8.18 52.7763 8.50933 53.123 8.752C53.4696 8.99467 53.8553 9.116 54.28 9.116C54.6613 9.116 54.9776 9.025 55.229 8.843C55.4803 8.661 55.606 8.42267 55.606 8.128C55.606 7.92 55.5453 7.75533 55.424 7.634C55.3113 7.504 55.1726 7.40433 55.008 7.335C54.8433 7.257 54.6916 7.20067 54.553 7.166L53.5 6.867C52.8673 6.685 52.4036 6.425 52.109 6.087C51.823 5.749 51.68 5.35467 51.68 4.904C51.68 4.488 51.784 4.12833 51.992 3.825C52.2086 3.513 52.499 3.27033 52.863 3.097C53.2356 2.92367 53.6516 2.837 54.111 2.837C54.7263 2.837 55.2766 2.993 55.762 3.305C56.256 3.617 56.607 4.05467 56.815 4.618L55.827 5.073C55.671 4.709 55.437 4.423 55.125 4.215C54.813 3.99833 54.462 3.89 54.072 3.89C53.7166 3.89 53.435 3.981 53.227 4.163C53.019 4.33633 52.915 4.55733 52.915 4.826C52.915 5.02533 52.967 5.19 53.071 5.32C53.175 5.44133 53.3006 5.53667 53.448 5.606C53.5953 5.66667 53.7383 5.71867 53.877 5.762L55.021 6.1C55.593 6.26467 56.035 6.52033 56.347 6.867C56.6676 7.21367 56.828 7.62967 56.828 8.115C56.828 8.505 56.7196 8.856 56.503 9.168C56.2863 9.48 55.9873 9.72267 55.606 9.896C55.2246 10.0693 54.7826 10.156 54.28 10.156ZM58.4106 10V2.993H59.6196V10H58.4106ZM58.4106 1.875V0.314999H59.6196V1.875H58.4106ZM64.8236 10.156C64.1476 10.156 63.5366 10 62.9906 9.688C62.4446 9.36733 62.0112 8.92967 61.6906 8.375C61.3699 7.82033 61.2096 7.192 61.2096 6.49C61.2096 5.788 61.3656 5.164 61.6776 4.618C61.9982 4.072 62.4316 3.63867 62.9776 3.318C63.5236 2.99733 64.1389 2.837 64.8236 2.837C65.4996 2.837 66.1106 2.99733 66.6566 3.318C67.2026 3.63 67.6316 4.059 67.9436 4.605C68.2642 5.151 68.4246 5.77933 68.4246 6.49C68.4246 7.20067 68.2599 7.83333 67.9306 8.388C67.6012 8.934 67.1636 9.36733 66.6176 9.688C66.0802 10 65.4822 10.156 64.8236 10.156ZM64.8236 8.986C65.2569 8.986 65.6469 8.87767 65.9936 8.661C66.3489 8.44433 66.6262 8.14533 66.8256 7.764C67.0336 7.38267 67.1376 6.958 67.1376 6.49C67.1376 6.01333 67.0336 5.593 66.8256 5.229C66.6262 4.85633 66.3489 4.56167 65.9936 4.345C65.6469 4.11967 65.2569 4.007 64.8236 4.007C64.3816 4.007 63.9829 4.11967 63.6276 4.345C63.2809 4.56167 63.0036 4.85633 62.7956 5.229C62.5876 5.593 62.4836 6.01333 62.4836 6.49C62.4836 6.958 62.5876 7.38267 62.7956 7.764C63.0036 8.14533 63.2809 8.44433 63.6276 8.661C63.9829 8.87767 64.3816 8.986 64.8236 8.986ZM70.0014 10V2.993H71.1844V4.358L70.9894 4.241C71.1628 3.799 71.4401 3.45667 71.8214 3.214C72.2114 2.96267 72.6664 2.837 73.1864 2.837C73.6891 2.837 74.1354 2.94967 74.5254 3.175C74.9241 3.40033 75.2361 3.71233 75.4614 4.111C75.6954 4.50967 75.8124 4.96033 75.8124 5.463V10H74.5904V5.853C74.5904 5.463 74.5211 5.13367 74.3824 4.865C74.2438 4.59633 74.0444 4.38833 73.7844 4.241C73.5331 4.085 73.2428 4.007 72.9134 4.007C72.5841 4.007 72.2894 4.085 72.0294 4.241C71.7781 4.38833 71.5788 4.60067 71.4314 4.878C71.2841 5.14667 71.2104 5.47167 71.2104 5.853V10H70.0014ZM79.7895 10V2.993H80.9725V4.358L80.7775 4.241C80.9508 3.799 81.2282 3.45667 81.6095 3.214C81.9995 2.96267 82.4545 2.837 82.9745 2.837C83.4772 2.837 83.9235 2.94967 84.3135 3.175C84.7122 3.40033 85.0242 3.71233 85.2495 4.111C85.4835 4.50967 85.6005 4.96033 85.6005 5.463V10H84.3785V5.853C84.3785 5.463 84.3092 5.13367 84.1705 4.865C84.0318 4.59633 83.8325 4.38833 83.5725 4.241C83.3212 4.085 83.0308 4.007 82.7015 4.007C82.3722 4.007 82.0775 4.085 81.8175 4.241C81.5662 4.38833 81.3668 4.60067 81.2195 4.878C81.0722 5.14667 80.9985 5.47167 80.9985 5.853V10H79.7895ZM89.3845 10.156C88.9252 10.156 88.5179 10.0737 88.1625 9.909C87.8159 9.73567 87.5429 9.50167 87.3435 9.207C87.1442 8.90367 87.0445 8.557 87.0445 8.167C87.0445 7.79433 87.1225 7.46067 87.2785 7.166C87.4432 6.86267 87.6945 6.607 88.0325 6.399C88.3792 6.191 88.8125 6.04367 89.3325 5.957L91.9325 5.528V6.542L89.6055 6.932C89.1549 7.01 88.8255 7.153 88.6175 7.361C88.4182 7.569 88.3185 7.82467 88.3185 8.128C88.3185 8.414 88.4312 8.65233 88.6565 8.843C88.8905 9.03367 89.1809 9.129 89.5275 9.129C89.9695 9.129 90.3509 9.038 90.6715 8.856C91.0009 8.66533 91.2565 8.40967 91.4385 8.089C91.6292 7.76833 91.7245 7.413 91.7245 7.023V5.242C91.7245 4.86067 91.5815 4.553 91.2955 4.319C91.0182 4.07633 90.6499 3.955 90.1905 3.955C89.7919 3.955 89.4365 4.059 89.1245 4.267C88.8212 4.46633 88.5959 4.735 88.4485 5.073L87.3955 4.527C87.5255 4.20633 87.7335 3.92033 88.0195 3.669C88.3055 3.409 88.6392 3.20533 89.0205 3.058C89.4019 2.91067 89.8005 2.837 90.2165 2.837C90.7539 2.837 91.2262 2.941 91.6335 3.149C92.0409 3.34833 92.3572 3.63 92.5825 3.994C92.8165 4.34933 92.9335 4.76533 92.9335 5.242V10H91.7505V8.674L91.9715 8.752C91.8242 9.02933 91.6249 9.272 91.3735 9.48C91.1222 9.688 90.8275 9.85267 90.4895 9.974C90.1515 10.0953 89.7832 10.156 89.3845 10.156ZM94.8081 10V2.993H95.9911V4.423L95.8221 4.202C95.9954 3.76 96.2727 3.422 96.6541 3.188C97.0354 2.954 97.4644 2.837 97.9411 2.837C98.4871 2.837 98.9767 2.98867 99.4101 3.292C99.8521 3.59533 100.155 3.994 100.32 4.488L99.9821 4.501C100.164 3.955 100.472 3.54333 100.905 3.266C101.338 2.98 101.819 2.837 102.348 2.837C102.833 2.837 103.271 2.94967 103.661 3.175C104.06 3.40033 104.376 3.71233 104.61 4.111C104.844 4.50967 104.961 4.96033 104.961 5.463V10H103.739V5.853C103.739 5.463 103.67 5.13367 103.531 4.865C103.392 4.59633 103.202 4.38833 102.959 4.241C102.725 4.085 102.448 4.007 102.127 4.007C101.815 4.007 101.533 4.085 101.282 4.241C101.039 4.38833 100.844 4.60067 100.697 4.878C100.558 5.14667 100.489 5.47167 100.489 5.853V10H99.2671V5.853C99.2671 5.463 99.1977 5.13367 99.0591 4.865C98.9204 4.59633 98.7297 4.38833 98.4871 4.241C98.2531 4.085 97.9757 4.007 97.6551 4.007C97.3431 4.007 97.0614 4.085 96.8101 4.241C96.5674 4.38833 96.3724 4.60067 96.2251 4.878C96.0864 5.14667 96.0171 5.47167 96.0171 5.853V10H94.8081ZM109.902 10.156C109.226 10.156 108.624 9.99567 108.095 9.675C107.567 9.35433 107.151 8.91667 106.847 8.362C106.544 7.79867 106.392 7.17033 106.392 6.477C106.392 5.775 106.54 5.151 106.834 4.605C107.138 4.059 107.545 3.63 108.056 3.318C108.576 2.99733 109.157 2.837 109.798 2.837C110.318 2.837 110.778 2.93233 111.176 3.123C111.584 3.305 111.926 3.55633 112.203 3.877C112.489 4.189 112.706 4.54867 112.853 4.956C113.009 5.35467 113.087 5.77067 113.087 6.204C113.087 6.29933 113.079 6.40767 113.061 6.529C113.053 6.64167 113.04 6.75 113.022 6.854H107.276V5.814H112.32L111.748 6.282C111.826 5.83133 111.783 5.42833 111.618 5.073C111.454 4.71767 111.211 4.436 110.89 4.228C110.57 4.02 110.206 3.916 109.798 3.916C109.391 3.916 109.018 4.02 108.68 4.228C108.342 4.436 108.078 4.735 107.887 5.125C107.705 5.50633 107.632 5.96133 107.666 6.49C107.632 7.00133 107.71 7.452 107.9 7.842C108.1 8.22333 108.377 8.52233 108.732 8.739C109.096 8.947 109.491 9.051 109.915 9.051C110.383 9.051 110.778 8.94267 111.098 8.726C111.419 8.50933 111.679 8.232 111.878 7.894L112.892 8.414C112.754 8.73467 112.537 9.02933 112.242 9.298C111.956 9.558 111.614 9.766 111.215 9.922C110.825 10.078 110.388 10.156 109.902 10.156ZM115.158 10V8.44H116.419V10H115.158ZM119.284 10V8.44H120.545V10H119.284ZM123.409 10V8.44H124.67V10H123.409Z" fill="white"/>
</svg>
