<svg width="113" height="13" viewBox="0 0 113 13" fill="none" xmlns="http://www.w3.org/2000/svg">
<path opacity="0.25" d="M2.769 10V1.485H0.143V0.314999H6.643V1.485H4.056V10H2.769ZM9.00758 10.156C8.54824 10.156 8.14091 10.0737 7.78558 9.909C7.43891 9.73567 7.16591 9.50167 6.96658 9.207C6.76724 8.90367 6.66758 8.557 6.66758 8.167C6.66758 7.79433 6.74558 7.46067 6.90158 7.166C7.06624 6.86267 7.31758 6.607 7.65558 6.399C8.00224 6.191 8.43558 6.04367 8.95558 5.957L11.5556 5.528V6.542L9.22858 6.932C8.77791 7.01 8.44858 7.153 8.24058 7.361C8.04124 7.569 7.94158 7.82467 7.94158 8.128C7.94158 8.414 8.05424 8.65233 8.27958 8.843C8.51358 9.03367 8.80391 9.129 9.15058 9.129C9.59258 9.129 9.97391 9.038 10.2946 8.856C10.6239 8.66533 10.8796 8.40967 11.0616 8.089C11.2522 7.76833 11.3476 7.413 11.3476 7.023V5.242C11.3476 4.86067 11.2046 4.553 10.9186 4.319C10.6412 4.07633 10.2729 3.955 9.81358 3.955C9.41491 3.955 9.05958 4.059 8.74758 4.267C8.44424 4.46633 8.21891 4.735 8.07158 5.073L7.01858 4.527C7.14858 4.20633 7.35658 3.92033 7.64258 3.669C7.92858 3.409 8.26224 3.20533 8.64358 3.058C9.02491 2.91067 9.42358 2.837 9.83958 2.837C10.3769 2.837 10.8492 2.941 11.2566 3.149C11.6639 3.34833 11.9802 3.63 12.2056 3.994C12.4396 4.34933 12.5566 4.76533 12.5566 5.242V10H11.3736V8.674L11.5946 8.752C11.4472 9.02933 11.2479 9.272 10.9966 9.48C10.7452 9.688 10.4506 9.85267 10.1126 9.974C9.77458 10.0953 9.40625 10.156 9.00758 10.156ZM16.9401 10.156C16.2381 10.156 15.6271 9.98267 15.1071 9.636C14.5871 9.28933 14.2188 8.82133 14.0021 8.232L14.9641 7.764C15.1635 8.18 15.4365 8.50933 15.7831 8.752C16.1298 8.99467 16.5155 9.116 16.9401 9.116C17.3215 9.116 17.6378 9.025 17.8891 8.843C18.1405 8.661 18.2661 8.42267 18.2661 8.128C18.2661 7.92 18.2055 7.75533 18.0841 7.634C17.9715 7.504 17.8328 7.40433 17.6681 7.335C17.5035 7.257 17.3518 7.20067 17.2131 7.166L16.1601 6.867C15.5275 6.685 15.0638 6.425 14.7691 6.087C14.4831 5.749 14.3401 5.35467 14.3401 4.904C14.3401 4.488 14.4441 4.12833 14.6521 3.825C14.8688 3.513 15.1591 3.27033 15.5231 3.097C15.8958 2.92367 16.3118 2.837 16.7711 2.837C17.3865 2.837 17.9368 2.993 18.4221 3.305C18.9161 3.617 19.2671 4.05467 19.4751 4.618L18.4871 5.073C18.3311 4.709 18.0971 4.423 17.7851 4.215C17.4731 3.99833 17.1221 3.89 16.7321 3.89C16.3768 3.89 16.0951 3.981 15.8871 4.163C15.6791 4.33633 15.5751 4.55733 15.5751 4.826C15.5751 5.02533 15.6271 5.19 15.7311 5.32C15.8351 5.44133 15.9608 5.53667 16.1081 5.606C16.2555 5.66667 16.3985 5.71867 16.5371 5.762L17.6811 6.1C18.2531 6.26467 18.6951 6.52033 19.0071 6.867C19.3278 7.21367 19.4881 7.62967 19.4881 8.115C19.4881 8.505 19.3798 8.856 19.1631 9.168C18.9465 9.48 18.6475 9.72267 18.2661 9.896C17.8848 10.0693 17.4428 10.156 16.9401 10.156ZM21.0708 10V0.159H22.2798V6.906L21.7858 6.789L25.5038 2.993H27.0508L24.3598 5.814L27.2328 10H25.8028L23.1768 6.204L23.9308 6.165L21.8898 8.297L22.2798 7.413V10H21.0708ZM33.7519 10.156C33.0932 10.156 32.4995 9.99567 31.9709 9.675C31.4509 9.35433 31.0392 8.91667 30.7359 8.362C30.4325 7.80733 30.2809 7.18767 30.2809 6.503C30.2809 5.801 30.4325 5.177 30.7359 4.631C31.0392 4.07633 31.4509 3.63867 31.9709 3.318C32.4995 2.99733 33.0932 2.837 33.7519 2.837C34.3325 2.837 34.8482 2.96267 35.2989 3.214C35.7495 3.45667 36.1049 3.786 36.3649 4.202L36.1699 4.501V0.159H37.3919V10H36.2089V8.505L36.3649 8.713C36.1222 9.17233 35.7669 9.52767 35.2989 9.779C34.8395 10.0303 34.3239 10.156 33.7519 10.156ZM33.8559 8.986C34.2979 8.986 34.6922 8.87767 35.0389 8.661C35.3855 8.44433 35.6585 8.14967 35.8579 7.777C36.0659 7.39567 36.1699 6.971 36.1699 6.503C36.1699 6.02633 36.0659 5.60167 35.8579 5.229C35.6585 4.84767 35.3855 4.54867 35.0389 4.332C34.6922 4.11533 34.2979 4.007 33.8559 4.007C33.4225 4.007 33.0282 4.11967 32.6729 4.345C32.3262 4.56167 32.0532 4.85633 31.8539 5.229C31.6545 5.593 31.5549 6.01767 31.5549 6.503C31.5549 6.971 31.6545 7.39567 31.8539 7.777C32.0532 8.14967 32.3262 8.44433 32.6729 8.661C33.0195 8.87767 33.4139 8.986 33.8559 8.986ZM42.4871 10.156C41.8111 10.156 41.2088 9.99567 40.6801 9.675C40.1515 9.35433 39.7355 8.91667 39.4321 8.362C39.1288 7.79867 38.9771 7.17033 38.9771 6.477C38.9771 5.775 39.1245 5.151 39.4191 4.605C39.7225 4.059 40.1298 3.63 40.6411 3.318C41.1611 2.99733 41.7418 2.837 42.3831 2.837C42.9031 2.837 43.3625 2.93233 43.7611 3.123C44.1685 3.305 44.5108 3.55633 44.7881 3.877C45.0741 4.189 45.2908 4.54867 45.4381 4.956C45.5941 5.35467 45.6721 5.77067 45.6721 6.204C45.6721 6.29933 45.6635 6.40767 45.6461 6.529C45.6375 6.64167 45.6245 6.75 45.6071 6.854H39.8611V5.814H44.9051L44.3331 6.282C44.4111 5.83133 44.3678 5.42833 44.2031 5.073C44.0385 4.71767 43.7958 4.436 43.4751 4.228C43.1545 4.02 42.7905 3.916 42.3831 3.916C41.9758 3.916 41.6031 4.02 41.2651 4.228C40.9271 4.436 40.6628 4.735 40.4721 5.125C40.2901 5.50633 40.2165 5.96133 40.2511 6.49C40.2165 7.00133 40.2945 7.452 40.4851 7.842C40.6845 8.22333 40.9618 8.52233 41.3171 8.739C41.6811 8.947 42.0755 9.051 42.5001 9.051C42.9681 9.051 43.3625 8.94267 43.6831 8.726C44.0038 8.50933 44.2638 8.232 44.4631 7.894L45.4771 8.414C45.3385 8.73467 45.1218 9.02933 44.8271 9.298C44.5411 9.558 44.1988 9.766 43.8001 9.922C43.4101 10.078 42.9725 10.156 42.4871 10.156ZM49.7575 10.156C49.0555 10.156 48.4445 9.98267 47.9245 9.636C47.4045 9.28933 47.0362 8.82133 46.8195 8.232L47.7815 7.764C47.9808 8.18 48.2538 8.50933 48.6005 8.752C48.9472 8.99467 49.3328 9.116 49.7575 9.116C50.1388 9.116 50.4552 9.025 50.7065 8.843C50.9578 8.661 51.0835 8.42267 51.0835 8.128C51.0835 7.92 51.0228 7.75533 50.9015 7.634C50.7888 7.504 50.6502 7.40433 50.4855 7.335C50.3208 7.257 50.1692 7.20067 50.0305 7.166L48.9775 6.867C48.3448 6.685 47.8812 6.425 47.5865 6.087C47.3005 5.749 47.1575 5.35467 47.1575 4.904C47.1575 4.488 47.2615 4.12833 47.4695 3.825C47.6862 3.513 47.9765 3.27033 48.3405 3.097C48.7132 2.92367 49.1292 2.837 49.5885 2.837C50.2038 2.837 50.7542 2.993 51.2395 3.305C51.7335 3.617 52.0845 4.05467 52.2925 4.618L51.3045 5.073C51.1485 4.709 50.9145 4.423 50.6025 4.215C50.2905 3.99833 49.9395 3.89 49.5495 3.89C49.1942 3.89 48.9125 3.981 48.7045 4.163C48.4965 4.33633 48.3925 4.55733 48.3925 4.826C48.3925 5.02533 48.4445 5.19 48.5485 5.32C48.6525 5.44133 48.7782 5.53667 48.9255 5.606C49.0728 5.66667 49.2158 5.71867 49.3545 5.762L50.4985 6.1C51.0705 6.26467 51.5125 6.52033 51.8245 6.867C52.1452 7.21367 52.3055 7.62967 52.3055 8.115C52.3055 8.505 52.1972 8.856 51.9805 9.168C51.7638 9.48 51.4648 9.72267 51.0835 9.896C50.7022 10.0693 50.2602 10.156 49.7575 10.156ZM57.1381 10.156C56.4535 10.156 55.8425 9.99567 55.3051 9.675C54.7765 9.35433 54.3605 8.91667 54.0571 8.362C53.7538 7.80733 53.6021 7.18333 53.6021 6.49C53.6021 5.788 53.7538 5.164 54.0571 4.618C54.3605 4.072 54.7765 3.63867 55.3051 3.318C55.8425 2.99733 56.4535 2.837 57.1381 2.837C57.5975 2.837 58.0265 2.91933 58.4251 3.084C58.8238 3.24867 59.1748 3.46967 59.4781 3.747C59.7815 4.02433 60.0025 4.34933 60.1411 4.722L59.0621 5.242C58.8975 4.878 58.6461 4.58333 58.3081 4.358C57.9701 4.124 57.5801 4.007 57.1381 4.007C56.7135 4.007 56.3278 4.11533 55.9811 4.332C55.6431 4.54867 55.3745 4.84333 55.1751 5.216C54.9758 5.58867 54.8761 6.01767 54.8761 6.503C54.8761 6.971 54.9758 7.39567 55.1751 7.777C55.3745 8.14967 55.6431 8.44433 55.9811 8.661C56.3278 8.87767 56.7135 8.986 57.1381 8.986C57.5801 8.986 57.9701 8.87333 58.3081 8.648C58.6461 8.414 58.8975 8.10633 59.0621 7.725L60.1411 8.271C60.0025 8.635 59.7815 8.96 59.4781 9.246C59.1748 9.52333 58.8238 9.74433 58.4251 9.909C58.0265 10.0737 57.5975 10.156 57.1381 10.156ZM61.7212 10V2.993H62.9042V4.28L62.7742 4.098C62.9388 3.69933 63.1902 3.40467 63.5282 3.214C63.8662 3.01467 64.2778 2.915 64.7632 2.915H65.1922V4.059H64.5812C64.0872 4.059 63.6885 4.215 63.3852 4.527C63.0818 4.83033 62.9302 5.26367 62.9302 5.827V10H61.7212ZM66.2661 10V2.993H67.4751V10H66.2661ZM66.2661 1.875V0.314999H67.4751V1.875H66.2661ZM69.351 12.6V2.993H70.534V4.501L70.378 4.202C70.638 3.786 70.9934 3.45667 71.444 3.214C71.8947 2.96267 72.4104 2.837 72.991 2.837C73.6497 2.837 74.239 2.99733 74.759 3.318C75.2877 3.63867 75.7037 4.07633 76.007 4.631C76.3104 5.177 76.462 5.801 76.462 6.503C76.462 7.18767 76.3104 7.80733 76.007 8.362C75.7037 8.91667 75.2877 9.35433 74.759 9.675C74.239 9.99567 73.6454 10.156 72.978 10.156C72.4147 10.156 71.899 10.0303 71.431 9.779C70.9717 9.52767 70.6164 9.17233 70.365 8.713L70.56 8.505V12.6H69.351ZM72.887 8.986C73.329 8.986 73.7234 8.87767 74.07 8.661C74.4167 8.44433 74.6854 8.14967 74.876 7.777C75.0754 7.39567 75.175 6.971 75.175 6.503C75.175 6.01767 75.0754 5.593 74.876 5.229C74.6854 4.85633 74.4167 4.56167 74.07 4.345C73.7234 4.11967 73.329 4.007 72.887 4.007C72.445 4.007 72.0464 4.11533 71.691 4.332C71.3444 4.54867 71.067 4.84767 70.859 5.229C70.6597 5.60167 70.56 6.02633 70.56 6.503C70.56 6.971 70.6597 7.39567 70.859 7.777C71.067 8.14967 71.3444 8.44433 71.691 8.661C72.0464 8.87767 72.445 8.986 72.887 8.986ZM80.7674 10.078C80.0827 10.078 79.554 9.883 79.1814 9.493C78.8174 9.103 78.6354 8.55267 78.6354 7.842V4.15H77.3614V2.993H77.6214C77.9334 2.993 78.1804 2.89767 78.3624 2.707C78.5444 2.51633 78.6354 2.265 78.6354 1.953V1.381H79.8444V2.993H81.4174V4.15H79.8444V7.803C79.8444 8.037 79.879 8.24067 79.9484 8.414C80.0264 8.58733 80.152 8.726 80.3254 8.83C80.4987 8.92533 80.7284 8.973 81.0144 8.973C81.075 8.973 81.1487 8.96867 81.2354 8.96C81.3307 8.95133 81.4174 8.94267 81.4954 8.934V10C81.3827 10.026 81.257 10.0433 81.1184 10.052C80.9797 10.0693 80.8627 10.078 80.7674 10.078ZM83.0747 10V2.993H84.2837V10H83.0747ZM83.0747 1.875V0.314999H84.2837V1.875H83.0747ZM89.4876 10.156C88.8116 10.156 88.2006 10 87.6546 9.688C87.1086 9.36733 86.6753 8.92967 86.3546 8.375C86.034 7.82033 85.8736 7.192 85.8736 6.49C85.8736 5.788 86.0296 5.164 86.3416 4.618C86.6623 4.072 87.0956 3.63867 87.6416 3.318C88.1876 2.99733 88.803 2.837 89.4876 2.837C90.1636 2.837 90.7746 2.99733 91.3206 3.318C91.8666 3.63 92.2956 4.059 92.6076 4.605C92.9283 5.151 93.0886 5.77933 93.0886 6.49C93.0886 7.20067 92.924 7.83333 92.5946 8.388C92.2653 8.934 91.8276 9.36733 91.2816 9.688C90.7443 10 90.1463 10.156 89.4876 10.156ZM89.4876 8.986C89.921 8.986 90.311 8.87767 90.6576 8.661C91.013 8.44433 91.2903 8.14533 91.4896 7.764C91.6976 7.38267 91.8016 6.958 91.8016 6.49C91.8016 6.01333 91.6976 5.593 91.4896 5.229C91.2903 4.85633 91.013 4.56167 90.6576 4.345C90.311 4.11967 89.921 4.007 89.4876 4.007C89.0456 4.007 88.647 4.11967 88.2916 4.345C87.945 4.56167 87.6676 4.85633 87.4596 5.229C87.2516 5.593 87.1476 6.01333 87.1476 6.49C87.1476 6.958 87.2516 7.38267 87.4596 7.764C87.6676 8.14533 87.945 8.44433 88.2916 8.661C88.647 8.87767 89.0456 8.986 89.4876 8.986ZM94.6655 10V2.993H95.8485V4.358L95.6535 4.241C95.8268 3.799 96.1042 3.45667 96.4855 3.214C96.8755 2.96267 97.3305 2.837 97.8505 2.837C98.3532 2.837 98.7995 2.94967 99.1895 3.175C99.5882 3.40033 99.9002 3.71233 100.125 4.111C100.359 4.50967 100.476 4.96033 100.476 5.463V10H99.2545V5.853C99.2545 5.463 99.1852 5.13367 99.0465 4.865C98.9078 4.59633 98.7085 4.38833 98.4485 4.241C98.1972 4.085 97.9068 4.007 97.5775 4.007C97.2482 4.007 96.9535 4.085 96.6935 4.241C96.4422 4.38833 96.2428 4.60067 96.0955 4.878C95.9482 5.14667 95.8745 5.47167 95.8745 5.853V10H94.6655ZM102.701 10V8.44H103.962V10H102.701ZM106.826 10V8.44H108.087V10H106.826ZM110.952 10V8.44H112.213V10H110.952Z" fill="#000112"/>
</svg>
