<svg width="80" height="13" viewBox="0 0 80 13" fill="none" xmlns="http://www.w3.org/2000/svg">
<path opacity="0.25" d="M3.06 12V2.625H0.165V0.824999H7.965V2.625H5.115V12H3.06ZM10.6263 12.18C10.0563 12.18 9.56133 12.085 9.14133 11.895C8.72133 11.705 8.39633 11.435 8.16633 11.085C7.93633 10.725 7.82133 10.31 7.82133 9.84C7.82133 9.39 7.92133 8.99 8.12133 8.64C8.32133 8.28 8.63133 7.98 9.05133 7.74C9.47133 7.5 10.0013 7.33 10.6413 7.23L13.3113 6.795V8.295L11.0163 8.685C10.6263 8.755 10.3363 8.88 10.1463 9.06C9.95633 9.24 9.86133 9.475 9.86133 9.765C9.86133 10.045 9.96633 10.27 10.1763 10.44C10.3963 10.6 10.6663 10.68 10.9863 10.68C11.3963 10.68 11.7563 10.595 12.0663 10.425C12.3863 10.245 12.6313 10 12.8013 9.69C12.9813 9.38 13.0713 9.04 13.0713 8.67V6.57C13.0713 6.22 12.9313 5.93 12.6513 5.7C12.3813 5.46 12.0213 5.34 11.5713 5.34C11.1513 5.34 10.7763 5.455 10.4463 5.685C10.1263 5.905 9.89133 6.2 9.74133 6.57L8.13633 5.79C8.29633 5.36 8.54633 4.99 8.88633 4.68C9.23633 4.36 9.64633 4.11 10.1163 3.93C10.5863 3.75 11.0963 3.66 11.6463 3.66C12.3163 3.66 12.9063 3.785 13.4163 4.035C13.9263 4.275 14.3213 4.615 14.6013 5.055C14.8913 5.485 15.0363 5.99 15.0363 6.57V12H13.1763V10.605L13.5963 10.575C13.3863 10.925 13.1363 11.22 12.8463 11.46C12.5563 11.69 12.2263 11.87 11.8563 12C11.4863 12.12 11.0763 12.18 10.6263 12.18ZM19.9575 12.18C19.0875 12.18 18.3275 11.975 17.6775 11.565C17.0375 11.145 16.5975 10.58 16.3575 9.87L17.8275 9.165C18.0375 9.625 18.3275 9.985 18.6975 10.245C19.0775 10.505 19.4975 10.635 19.9575 10.635C20.3175 10.635 20.6025 10.555 20.8125 10.395C21.0225 10.235 21.1275 10.025 21.1275 9.765C21.1275 9.605 21.0825 9.475 20.9925 9.375C20.9125 9.265 20.7975 9.175 20.6475 9.105C20.5075 9.025 20.3525 8.96 20.1825 8.91L18.8475 8.535C18.1575 8.335 17.6325 8.03 17.2725 7.62C16.9225 7.21 16.7475 6.725 16.7475 6.165C16.7475 5.665 16.8725 5.23 17.1225 4.86C17.3825 4.48 17.7375 4.185 18.1875 3.975C18.6475 3.765 19.1725 3.66 19.7625 3.66C20.5325 3.66 21.2125 3.845 21.8025 4.215C22.3925 4.585 22.8125 5.105 23.0625 5.775L21.5625 6.48C21.4225 6.11 21.1875 5.815 20.8575 5.595C20.5275 5.375 20.1575 5.265 19.7475 5.265C19.4175 5.265 19.1575 5.34 18.9675 5.49C18.7775 5.64 18.6825 5.835 18.6825 6.075C18.6825 6.225 18.7225 6.355 18.8025 6.465C18.8825 6.575 18.9925 6.665 19.1325 6.735C19.2825 6.805 19.4525 6.87 19.6425 6.93L20.9475 7.32C21.6175 7.52 22.1325 7.82 22.4925 8.22C22.8625 8.62 23.0475 9.11 23.0475 9.69C23.0475 10.18 22.9175 10.615 22.6575 10.995C22.3975 11.365 22.0375 11.655 21.5775 11.865C21.1175 12.075 20.5775 12.18 19.9575 12.18ZM24.5576 12V0.645H26.5226V8.085L25.7726 7.86L29.6126 3.84H32.0576L29.0426 7.125L32.1176 12H29.8676L27.1976 7.77L28.3676 7.53L25.9076 10.17L26.5226 8.97V12H24.5576ZM39.6008 12.09C38.6808 12.09 37.9658 11.84 37.4558 11.34C36.9558 10.83 36.7058 10.115 36.7058 9.195V5.595H35.2958V3.84H35.4458C35.8458 3.84 36.1558 3.735 36.3758 3.525C36.5958 3.315 36.7058 3.01 36.7058 2.61V1.98H38.6708V3.84H40.5458V5.595H38.6708V9.09C38.6708 9.36 38.7158 9.59 38.8058 9.78C38.9058 9.97 39.0558 10.115 39.2558 10.215C39.4658 10.315 39.7308 10.365 40.0508 10.365C40.1208 10.365 40.2008 10.36 40.2908 10.35C40.3908 10.34 40.4858 10.33 40.5758 10.32V12C40.4358 12.02 40.2758 12.04 40.0958 12.06C39.9158 12.08 39.7508 12.09 39.6008 12.09ZM42.0771 12V3.84H44.0421V12H42.0771ZM42.0771 2.925V0.824999H44.0421V2.925H42.0771ZM49.5764 12.09C48.6564 12.09 47.9414 11.84 47.4314 11.34C46.9314 10.83 46.6814 10.115 46.6814 9.195V5.595H45.2714V3.84H45.4214C45.8214 3.84 46.1314 3.735 46.3514 3.525C46.5714 3.315 46.6814 3.01 46.6814 2.61V1.98H48.6464V3.84H50.5214V5.595H48.6464V9.09C48.6464 9.36 48.6914 9.59 48.7814 9.78C48.8814 9.97 49.0314 10.115 49.2314 10.215C49.4414 10.315 49.7064 10.365 50.0264 10.365C50.0964 10.365 50.1764 10.36 50.2664 10.35C50.3664 10.34 50.4614 10.33 50.5514 10.32V12C50.4114 12.02 50.2514 12.04 50.0714 12.06C49.8914 12.08 49.7264 12.09 49.5764 12.09ZM52.0527 12V0.645H54.0177V12H52.0527ZM59.702 12.18C58.862 12.18 58.127 11.99 57.497 11.61C56.867 11.23 56.377 10.715 56.027 10.065C55.677 9.415 55.502 8.695 55.502 7.905C55.502 7.085 55.677 6.36 56.027 5.73C56.387 5.09 56.872 4.585 57.482 4.215C58.102 3.845 58.792 3.66 59.552 3.66C60.192 3.66 60.752 3.765 61.232 3.975C61.722 4.185 62.137 4.475 62.477 4.845C62.817 5.215 63.077 5.64 63.257 6.12C63.437 6.59 63.527 7.1 63.527 7.65C63.527 7.79 63.517 7.935 63.497 8.085C63.487 8.235 63.462 8.365 63.422 8.475H57.122V6.975H62.312L61.382 7.68C61.472 7.22 61.447 6.81 61.307 6.45C61.177 6.09 60.957 5.805 60.647 5.595C60.347 5.385 59.982 5.28 59.552 5.28C59.142 5.28 58.777 5.385 58.457 5.595C58.137 5.795 57.892 6.095 57.722 6.495C57.562 6.885 57.502 7.36 57.542 7.92C57.502 8.42 57.567 8.865 57.737 9.255C57.917 9.635 58.177 9.93 58.517 10.14C58.867 10.35 59.267 10.455 59.717 10.455C60.167 10.455 60.547 10.36 60.857 10.17C61.177 9.98 61.427 9.725 61.607 9.405L63.197 10.185C63.037 10.575 62.787 10.92 62.447 11.22C62.107 11.52 61.702 11.755 61.232 11.925C60.772 12.095 60.262 12.18 59.702 12.18ZM65.9466 12V9.9H67.9266V12H65.9466ZM71.6155 12V9.9H73.5955V12H71.6155ZM77.2845 12V9.9H79.2645V12H77.2845Z" fill="white"/>
</svg>
