<svg width="108" height="13" viewBox="0 0 108 13" fill="none" xmlns="http://www.w3.org/2000/svg">
<path opacity="0.25" d="M2.448 10V2.5H0.132V1.06H6.372V2.5H4.092V10H2.448ZM8.50106 10.144C8.04506 10.144 7.64906 10.068 7.31306 9.916C6.97706 9.764 6.71706 9.548 6.53306 9.268C6.34906 8.98 6.25706 8.648 6.25706 8.272C6.25706 7.912 6.33706 7.592 6.49706 7.312C6.65706 7.024 6.90506 6.784 7.24106 6.592C7.57706 6.4 8.00106 6.264 8.51306 6.184L10.6491 5.836V7.036L8.81306 7.348C8.50106 7.404 8.26906 7.504 8.11706 7.648C7.96506 7.792 7.88906 7.98 7.88906 8.212C7.88906 8.436 7.97306 8.616 8.14106 8.752C8.31706 8.88 8.53306 8.944 8.78906 8.944C9.11706 8.944 9.40506 8.876 9.65306 8.74C9.90906 8.596 10.1051 8.4 10.2411 8.152C10.3851 7.904 10.4571 7.632 10.4571 7.336V5.656C10.4571 5.376 10.3451 5.144 10.1211 4.96C9.90506 4.768 9.61706 4.672 9.25706 4.672C8.92106 4.672 8.62106 4.764 8.35706 4.948C8.10106 5.124 7.91306 5.36 7.79306 5.656L6.50906 5.032C6.63706 4.688 6.83706 4.392 7.10906 4.144C7.38906 3.888 7.71706 3.688 8.09306 3.544C8.46906 3.4 8.87706 3.328 9.31706 3.328C9.85306 3.328 10.3251 3.428 10.7331 3.628C11.1411 3.82 11.4571 4.092 11.6811 4.444C11.9131 4.788 12.0291 5.192 12.0291 5.656V10H10.5411V8.884L10.8771 8.86C10.7091 9.14 10.5091 9.376 10.2771 9.568C10.0451 9.752 9.78106 9.896 9.48506 10C9.18906 10.096 8.86106 10.144 8.50106 10.144ZM15.966 10.144C15.27 10.144 14.662 9.98 14.142 9.652C13.63 9.316 13.278 8.864 13.086 8.296L14.262 7.732C14.43 8.1 14.662 8.388 14.958 8.596C15.262 8.804 15.598 8.908 15.966 8.908C16.254 8.908 16.482 8.844 16.65 8.716C16.818 8.588 16.902 8.42 16.902 8.212C16.902 8.084 16.866 7.98 16.794 7.9C16.73 7.812 16.638 7.74 16.518 7.684C16.406 7.62 16.282 7.568 16.146 7.528L15.078 7.228C14.526 7.068 14.106 6.824 13.818 6.496C13.538 6.168 13.398 5.78 13.398 5.332C13.398 4.932 13.498 4.584 13.698 4.288C13.906 3.984 14.19 3.748 14.55 3.58C14.918 3.412 15.338 3.328 15.81 3.328C16.426 3.328 16.97 3.476 17.442 3.772C17.914 4.068 18.25 4.484 18.45 5.02L17.25 5.584C17.138 5.288 16.95 5.052 16.686 4.876C16.422 4.7 16.126 4.612 15.798 4.612C15.534 4.612 15.326 4.672 15.174 4.792C15.022 4.912 14.946 5.068 14.946 5.26C14.946 5.38 14.978 5.484 15.042 5.572C15.106 5.66 15.194 5.732 15.306 5.788C15.426 5.844 15.562 5.896 15.714 5.944L16.758 6.256C17.294 6.416 17.706 6.656 17.994 6.976C18.29 7.296 18.438 7.688 18.438 8.152C18.438 8.544 18.334 8.892 18.126 9.196C17.918 9.492 17.63 9.724 17.262 9.892C16.894 10.06 16.462 10.144 15.966 10.144ZM19.6461 10V0.916H21.2181V6.868L20.6181 6.688L23.6901 3.472H25.6461L23.2341 6.1L25.6941 10H23.8941L21.7581 6.616L22.6941 6.424L20.7261 8.536L21.2181 7.576V10H19.6461ZM31.7407 10.144C31.1087 10.144 30.5447 9.996 30.0487 9.7C29.5527 9.396 29.1607 8.984 28.8727 8.464C28.5847 7.944 28.4407 7.368 28.4407 6.736C28.4407 6.096 28.5847 5.52 28.8727 5.008C29.1607 4.496 29.5527 4.088 30.0487 3.784C30.5527 3.48 31.1127 3.328 31.7287 3.328C32.2247 3.328 32.6647 3.428 33.0487 3.628C33.4407 3.82 33.7487 4.092 33.9727 4.444L33.7327 4.768V0.916H35.3047V10H33.8167V8.74L33.9847 9.052C33.7607 9.404 33.4487 9.676 33.0487 9.868C32.6487 10.052 32.2127 10.144 31.7407 10.144ZM31.9087 8.704C32.2687 8.704 32.5847 8.62 32.8567 8.452C33.1287 8.284 33.3407 8.052 33.4927 7.756C33.6527 7.46 33.7327 7.12 33.7327 6.736C33.7327 6.36 33.6527 6.024 33.4927 5.728C33.3407 5.424 33.1287 5.188 32.8567 5.02C32.5847 4.852 32.2687 4.768 31.9087 4.768C31.5567 4.768 31.2407 4.856 30.9607 5.032C30.6807 5.2 30.4607 5.432 30.3007 5.728C30.1487 6.016 30.0727 6.352 30.0727 6.736C30.0727 7.12 30.1487 7.46 30.3007 7.756C30.4607 8.052 30.6807 8.284 30.9607 8.452C31.2407 8.62 31.5567 8.704 31.9087 8.704ZM39.8632 10.144C39.1912 10.144 38.6032 9.992 38.0992 9.688C37.5952 9.384 37.2032 8.972 36.9232 8.452C36.6432 7.932 36.5032 7.356 36.5032 6.724C36.5032 6.068 36.6432 5.488 36.9232 4.984C37.2112 4.472 37.5992 4.068 38.0872 3.772C38.5832 3.476 39.1352 3.328 39.7432 3.328C40.2552 3.328 40.7032 3.412 41.0872 3.58C41.4792 3.748 41.8112 3.98 42.0832 4.276C42.3552 4.572 42.5632 4.912 42.7072 5.296C42.8512 5.672 42.9232 6.08 42.9232 6.52C42.9232 6.632 42.9152 6.748 42.8992 6.868C42.8912 6.988 42.8712 7.092 42.8392 7.18H37.7992V5.98H41.9512L41.2072 6.544C41.2792 6.176 41.2592 5.848 41.1472 5.56C41.0432 5.272 40.8672 5.044 40.6192 4.876C40.3792 4.708 40.0872 4.624 39.7432 4.624C39.4152 4.624 39.1232 4.708 38.8672 4.876C38.6112 5.036 38.4152 5.276 38.2792 5.596C38.1512 5.908 38.1032 6.288 38.1352 6.736C38.1032 7.136 38.1552 7.492 38.2912 7.804C38.4352 8.108 38.6432 8.344 38.9152 8.512C39.1952 8.68 39.5152 8.764 39.8752 8.764C40.2352 8.764 40.5392 8.688 40.7872 8.536C41.0432 8.384 41.2432 8.18 41.3872 7.924L42.6592 8.548C42.5312 8.86 42.3312 9.136 42.0592 9.376C41.7872 9.616 41.4632 9.804 41.0872 9.94C40.7192 10.076 40.3112 10.144 39.8632 10.144ZM46.5988 10.144C45.9028 10.144 45.2948 9.98 44.7748 9.652C44.2628 9.316 43.9108 8.864 43.7188 8.296L44.8948 7.732C45.0628 8.1 45.2948 8.388 45.5908 8.596C45.8948 8.804 46.2308 8.908 46.5988 8.908C46.8868 8.908 47.1148 8.844 47.2828 8.716C47.4508 8.588 47.5348 8.42 47.5348 8.212C47.5348 8.084 47.4988 7.98 47.4268 7.9C47.3628 7.812 47.2708 7.74 47.1508 7.684C47.0388 7.62 46.9148 7.568 46.7788 7.528L45.7108 7.228C45.1588 7.068 44.7388 6.824 44.4508 6.496C44.1708 6.168 44.0308 5.78 44.0308 5.332C44.0308 4.932 44.1308 4.584 44.3308 4.288C44.5388 3.984 44.8228 3.748 45.1828 3.58C45.5508 3.412 45.9708 3.328 46.4428 3.328C47.0588 3.328 47.6028 3.476 48.0748 3.772C48.5468 4.068 48.8828 4.484 49.0828 5.02L47.8828 5.584C47.7708 5.288 47.5828 5.052 47.3188 4.876C47.0548 4.7 46.7588 4.612 46.4308 4.612C46.1668 4.612 45.9588 4.672 45.8068 4.792C45.6548 4.912 45.5788 5.068 45.5788 5.26C45.5788 5.38 45.6108 5.484 45.6748 5.572C45.7388 5.66 45.8268 5.732 45.9388 5.788C46.0588 5.844 46.1948 5.896 46.3468 5.944L47.3908 6.256C47.9268 6.416 48.3388 6.656 48.6268 6.976C48.9228 7.296 49.0708 7.688 49.0708 8.152C49.0708 8.544 48.9668 8.892 48.7588 9.196C48.5508 9.492 48.2628 9.724 47.8948 9.892C47.5268 10.06 47.0948 10.144 46.5988 10.144ZM53.4229 10.144C52.7749 10.144 52.1909 9.996 51.6709 9.7C51.1589 9.396 50.7549 8.988 50.4589 8.476C50.1629 7.956 50.0149 7.372 50.0149 6.724C50.0149 6.076 50.1629 5.496 50.4589 4.984C50.7549 4.472 51.1589 4.068 51.6709 3.772C52.1909 3.476 52.7749 3.328 53.4229 3.328C53.8869 3.328 54.3189 3.412 54.7189 3.58C55.1189 3.74 55.4629 3.964 55.7509 4.252C56.0469 4.532 56.2589 4.868 56.3869 5.26L55.0069 5.86C54.8869 5.532 54.6829 5.268 54.3949 5.068C54.1149 4.868 53.7909 4.768 53.4229 4.768C53.0789 4.768 52.7709 4.852 52.4989 5.02C52.2349 5.188 52.0269 5.42 51.8749 5.716C51.7229 6.012 51.6469 6.352 51.6469 6.736C51.6469 7.12 51.7229 7.46 51.8749 7.756C52.0269 8.052 52.2349 8.284 52.4989 8.452C52.7709 8.62 53.0789 8.704 53.4229 8.704C53.7989 8.704 54.1269 8.604 54.4069 8.404C54.6869 8.204 54.8869 7.936 55.0069 7.6L56.3869 8.224C56.2589 8.592 56.0509 8.924 55.7629 9.22C55.4749 9.508 55.1309 9.736 54.7309 9.904C54.3309 10.064 53.8949 10.144 53.4229 10.144ZM57.5797 10V3.472H59.0557V4.924L58.9357 4.708C59.0877 4.22 59.3237 3.88 59.6437 3.688C59.9717 3.496 60.3637 3.4 60.8197 3.4H61.2037V4.792H60.6397C60.1917 4.792 59.8317 4.932 59.5597 5.212C59.2877 5.484 59.1517 5.868 59.1517 6.364V10H57.5797ZM62.0679 10V3.472H63.6399V10H62.0679ZM62.0679 2.74V1.06H63.6399V2.74H62.0679ZM65.0914 12.4V3.472H66.5674V4.768L66.4234 4.444C66.6474 4.092 66.9514 3.82 67.3354 3.628C67.7194 3.428 68.1634 3.328 68.6674 3.328C69.2834 3.328 69.8394 3.48 70.3354 3.784C70.8314 4.088 71.2234 4.496 71.5114 5.008C71.8074 5.52 71.9554 6.096 71.9554 6.736C71.9554 7.368 71.8114 7.944 71.5234 8.464C71.2354 8.984 70.8434 9.396 70.3474 9.7C69.8514 9.996 69.2874 10.144 68.6554 10.144C68.1834 10.144 67.7474 10.052 67.3474 9.868C66.9554 9.676 66.6434 9.404 66.4114 9.052L66.6634 8.74V12.4H65.0914ZM68.4754 8.704C68.8354 8.704 69.1554 8.62 69.4354 8.452C69.7154 8.284 69.9314 8.052 70.0834 7.756C70.2434 7.46 70.3234 7.12 70.3234 6.736C70.3234 6.352 70.2434 6.016 70.0834 5.728C69.9314 5.432 69.7154 5.2 69.4354 5.032C69.1554 4.856 68.8354 4.768 68.4754 4.768C68.1314 4.768 67.8194 4.852 67.5394 5.02C67.2674 5.188 67.0514 5.424 66.8914 5.728C66.7394 6.024 66.6634 6.36 66.6634 6.736C66.6634 7.12 66.7394 7.46 66.8914 7.756C67.0514 8.052 67.2674 8.284 67.5394 8.452C67.8194 8.62 68.1314 8.704 68.4754 8.704ZM76.0127 10.072C75.2767 10.072 74.7047 9.872 74.2967 9.472C73.8967 9.064 73.6967 8.492 73.6967 7.756V4.876H72.5687V3.472H72.6887C73.0087 3.472 73.2567 3.388 73.4327 3.22C73.6087 3.052 73.6967 2.808 73.6967 2.488V1.984H75.2687V3.472H76.7687V4.876H75.2687V7.672C75.2687 7.888 75.3047 8.072 75.3767 8.224C75.4567 8.376 75.5767 8.492 75.7367 8.572C75.9047 8.652 76.1167 8.692 76.3727 8.692C76.4287 8.692 76.4927 8.688 76.5647 8.68C76.6447 8.672 76.7207 8.664 76.7927 8.656V10C76.6807 10.016 76.5527 10.032 76.4087 10.048C76.2647 10.064 76.1327 10.072 76.0127 10.072ZM77.9937 10V3.472H79.5657V10H77.9937ZM77.9937 2.74V1.06H79.5657V2.74H77.9937ZM84.2092 10.144C83.5692 10.144 82.9852 9.996 82.4572 9.7C81.9372 9.404 81.5212 9 81.2092 8.488C80.9052 7.976 80.7532 7.392 80.7532 6.736C80.7532 6.08 80.9052 5.496 81.2092 4.984C81.5212 4.472 81.9372 4.068 82.4572 3.772C82.9772 3.476 83.5612 3.328 84.2092 3.328C84.8492 3.328 85.4292 3.476 85.9492 3.772C86.4692 4.068 86.8812 4.472 87.1852 4.984C87.4972 5.488 87.6532 6.072 87.6532 6.736C87.6532 7.392 87.4972 7.976 87.1852 8.488C86.8732 9 86.4572 9.404 85.9372 9.7C85.4172 9.996 84.8412 10.144 84.2092 10.144ZM84.2092 8.704C84.5612 8.704 84.8692 8.62 85.1332 8.452C85.4052 8.284 85.6172 8.052 85.7692 7.756C85.9292 7.452 86.0092 7.112 86.0092 6.736C86.0092 6.352 85.9292 6.016 85.7692 5.728C85.6172 5.432 85.4052 5.2 85.1332 5.032C84.8692 4.856 84.5612 4.768 84.2092 4.768C83.8492 4.768 83.5332 4.856 83.2612 5.032C82.9892 5.2 82.7732 5.432 82.6132 5.728C82.4612 6.016 82.3852 6.352 82.3852 6.736C82.3852 7.112 82.4612 7.452 82.6132 7.756C82.7732 8.052 82.9892 8.284 83.2612 8.452C83.5332 8.62 83.8492 8.704 84.2092 8.704ZM88.8453 10V3.472H90.3213V4.756L90.2013 4.528C90.3533 4.136 90.6013 3.84 90.9453 3.64C91.2973 3.432 91.7053 3.328 92.1693 3.328C92.6493 3.328 93.0733 3.432 93.4413 3.64C93.8173 3.848 94.1093 4.14 94.3173 4.516C94.5253 4.884 94.6293 5.312 94.6293 5.8V10H93.0573V6.172C93.0573 5.884 93.0013 5.636 92.8893 5.428C92.7773 5.22 92.6213 5.06 92.4213 4.948C92.2293 4.828 92.0013 4.768 91.7373 4.768C91.4813 4.768 91.2533 4.828 91.0533 4.948C90.8533 5.06 90.6973 5.22 90.5853 5.428C90.4733 5.636 90.4173 5.884 90.4173 6.172V10H88.8453ZM96.7026 10V8.32H98.2866V10H96.7026ZM101.238 10V8.32H102.822V10H101.238ZM105.773 10V8.32H107.357V10H105.773Z" fill="white"/>
</svg>
