<svg width="80" height="13" viewBox="0 0 80 13" fill="none" xmlns="http://www.w3.org/2000/svg">
<path opacity="0.25" d="M3.39008 12V2.625H0.495078V0.824999H8.29508V2.625H5.44508V12H3.39008ZM10.9564 12.18C10.3864 12.18 9.89141 12.085 9.47141 11.895C9.05141 11.705 8.72641 11.435 8.49641 11.085C8.26641 10.725 8.15141 10.31 8.15141 9.84C8.15141 9.39 8.25141 8.99 8.45141 8.64C8.65141 8.28 8.96141 7.98 9.38141 7.74C9.80141 7.5 10.3314 7.33 10.9714 7.23L13.6414 6.795V8.295L11.3464 8.685C10.9564 8.755 10.6664 8.88 10.4764 9.06C10.2864 9.24 10.1914 9.475 10.1914 9.765C10.1914 10.045 10.2964 10.27 10.5064 10.44C10.7264 10.6 10.9964 10.68 11.3164 10.68C11.7264 10.68 12.0864 10.595 12.3964 10.425C12.7164 10.245 12.9614 10 13.1314 9.69C13.3114 9.38 13.4014 9.04 13.4014 8.67V6.57C13.4014 6.22 13.2614 5.93 12.9814 5.7C12.7114 5.46 12.3514 5.34 11.9014 5.34C11.4814 5.34 11.1064 5.455 10.7764 5.685C10.4564 5.905 10.2214 6.2 10.0714 6.57L8.46641 5.79C8.62641 5.36 8.87641 4.99 9.21641 4.68C9.56641 4.36 9.97641 4.11 10.4464 3.93C10.9164 3.75 11.4264 3.66 11.9764 3.66C12.6464 3.66 13.2364 3.785 13.7464 4.035C14.2564 4.275 14.6514 4.615 14.9314 5.055C15.2214 5.485 15.3664 5.99 15.3664 6.57V12H13.5064V10.605L13.9264 10.575C13.7164 10.925 13.4664 11.22 13.1764 11.46C12.8864 11.69 12.5564 11.87 12.1864 12C11.8164 12.12 11.4064 12.18 10.9564 12.18ZM20.2876 12.18C19.4176 12.18 18.6576 11.975 18.0076 11.565C17.3676 11.145 16.9276 10.58 16.6876 9.87L18.1576 9.165C18.3676 9.625 18.6576 9.985 19.0276 10.245C19.4076 10.505 19.8276 10.635 20.2876 10.635C20.6476 10.635 20.9326 10.555 21.1426 10.395C21.3526 10.235 21.4576 10.025 21.4576 9.765C21.4576 9.605 21.4126 9.475 21.3226 9.375C21.2426 9.265 21.1276 9.175 20.9776 9.105C20.8376 9.025 20.6826 8.96 20.5126 8.91L19.1776 8.535C18.4876 8.335 17.9626 8.03 17.6026 7.62C17.2526 7.21 17.0776 6.725 17.0776 6.165C17.0776 5.665 17.2026 5.23 17.4526 4.86C17.7126 4.48 18.0676 4.185 18.5176 3.975C18.9776 3.765 19.5026 3.66 20.0926 3.66C20.8626 3.66 21.5426 3.845 22.1326 4.215C22.7226 4.585 23.1426 5.105 23.3926 5.775L21.8926 6.48C21.7526 6.11 21.5176 5.815 21.1876 5.595C20.8576 5.375 20.4876 5.265 20.0776 5.265C19.7476 5.265 19.4876 5.34 19.2976 5.49C19.1076 5.64 19.0126 5.835 19.0126 6.075C19.0126 6.225 19.0526 6.355 19.1326 6.465C19.2126 6.575 19.3226 6.665 19.4626 6.735C19.6126 6.805 19.7826 6.87 19.9726 6.93L21.2776 7.32C21.9476 7.52 22.4626 7.82 22.8226 8.22C23.1926 8.62 23.3776 9.11 23.3776 9.69C23.3776 10.18 23.2476 10.615 22.9876 10.995C22.7276 11.365 22.3676 11.655 21.9076 11.865C21.4476 12.075 20.9076 12.18 20.2876 12.18ZM24.8877 12V0.645H26.8527V8.085L26.1027 7.86L29.9427 3.84H32.3877L29.3727 7.125L32.4477 12H30.1977L27.5277 7.77L28.6977 7.53L26.2377 10.17L26.8527 8.97V12H24.8877ZM39.9309 12.09C39.0109 12.09 38.2959 11.84 37.7859 11.34C37.2859 10.83 37.0359 10.115 37.0359 9.195V5.595H35.6259V3.84H35.7759C36.1759 3.84 36.4859 3.735 36.7059 3.525C36.9259 3.315 37.0359 3.01 37.0359 2.61V1.98H39.0009V3.84H40.8759V5.595H39.0009V9.09C39.0009 9.36 39.0459 9.59 39.1359 9.78C39.2359 9.97 39.3859 10.115 39.5859 10.215C39.7959 10.315 40.0609 10.365 40.3809 10.365C40.4509 10.365 40.5309 10.36 40.6209 10.35C40.7209 10.34 40.8159 10.33 40.9059 10.32V12C40.7659 12.02 40.6059 12.04 40.4259 12.06C40.2459 12.08 40.0809 12.09 39.9309 12.09ZM42.4072 12V3.84H44.3722V12H42.4072ZM42.4072 2.925V0.824999H44.3722V2.925H42.4072ZM49.9065 12.09C48.9865 12.09 48.2715 11.84 47.7615 11.34C47.2615 10.83 47.0115 10.115 47.0115 9.195V5.595H45.6015V3.84H45.7515C46.1515 3.84 46.4615 3.735 46.6815 3.525C46.9015 3.315 47.0115 3.01 47.0115 2.61V1.98H48.9765V3.84H50.8515V5.595H48.9765V9.09C48.9765 9.36 49.0215 9.59 49.1115 9.78C49.2115 9.97 49.3615 10.115 49.5615 10.215C49.7715 10.315 50.0365 10.365 50.3565 10.365C50.4265 10.365 50.5065 10.36 50.5965 10.35C50.6965 10.34 50.7915 10.33 50.8815 10.32V12C50.7415 12.02 50.5815 12.04 50.4015 12.06C50.2215 12.08 50.0565 12.09 49.9065 12.09ZM52.3828 12V0.645H54.3478V12H52.3828ZM60.0321 12.18C59.1921 12.18 58.4571 11.99 57.8271 11.61C57.1971 11.23 56.7071 10.715 56.3571 10.065C56.0071 9.415 55.8321 8.695 55.8321 7.905C55.8321 7.085 56.0071 6.36 56.3571 5.73C56.7171 5.09 57.2021 4.585 57.8121 4.215C58.4321 3.845 59.1221 3.66 59.8821 3.66C60.5221 3.66 61.0821 3.765 61.5621 3.975C62.0521 4.185 62.4671 4.475 62.8071 4.845C63.1471 5.215 63.4071 5.64 63.5871 6.12C63.7671 6.59 63.8571 7.1 63.8571 7.65C63.8571 7.79 63.8471 7.935 63.8271 8.085C63.8171 8.235 63.7921 8.365 63.7521 8.475H57.4521V6.975H62.6421L61.7121 7.68C61.8021 7.22 61.7771 6.81 61.6371 6.45C61.5071 6.09 61.2871 5.805 60.9771 5.595C60.6771 5.385 60.3121 5.28 59.8821 5.28C59.4721 5.28 59.1071 5.385 58.7871 5.595C58.4671 5.795 58.2221 6.095 58.0521 6.495C57.8921 6.885 57.8321 7.36 57.8721 7.92C57.8321 8.42 57.8971 8.865 58.0671 9.255C58.2471 9.635 58.5071 9.93 58.8471 10.14C59.1971 10.35 59.5971 10.455 60.0471 10.455C60.4971 10.455 60.8771 10.36 61.1871 10.17C61.5071 9.98 61.7571 9.725 61.9371 9.405L63.5271 10.185C63.3671 10.575 63.1171 10.92 62.7771 11.22C62.4371 11.52 62.0321 11.755 61.5621 11.925C61.1021 12.095 60.5921 12.18 60.0321 12.18ZM66.2766 12V9.9H68.2566V12H66.2766ZM71.9456 12V9.9H73.9256V12H71.9456ZM77.6145 12V9.9H79.5945V12H77.6145Z" fill="#000112"/>
</svg>
